<svg xmlns="http://www.w3.org/2000/svg" width="1600" height="900" viewBox="0 0 1600 900">
  <defs>
    <linearGradient id="bg" x1="0" y1="0" x2="1" y2="1">
      <stop offset="0%" stop-color="#70e8ff"/>
      <stop offset="48%" stop-color="#fff7e4"/>
      <stop offset="100%" stop-color="#dffbf1"/>
    </linearGradient>
    <linearGradient id="gold" x1="0" x2="1"><stop stop-color="#fff1a8"/><stop offset="1" stop-color="#c98512"/></linearGradient>
    <filter id="sh"><feDropShadow dx="0" dy="18" stdDeviation="18" flood-color="#005e78" flood-opacity=".22"/></filter>
  </defs>
  <rect width="1600" height="900" rx="64" fill="url(#bg)"/>
  <circle cx="1320" cy="180" r="120" fill="#ffffff" opacity=".35"/>
  <circle cx="210" cy="170" r="85" fill="#ffffff" opacity=".35"/>
  <path d="M0 680c220-120 410-40 665-140 300-118 574 42 935-120v480H0z" fill="#11a7a2" opacity=".14"/>
  <g filter="url(#sh)">
    <rect x="145" y="240" width="1310" height="490" rx="58" fill="#fff7e4" stroke="url(#gold)" stroke-width="10"/>
    <rect x="220" y="305" width="420" height="330" rx="38" fill="#13b8a6" opacity=".18"/>
    <text x="430" y="505" text-anchor="middle" dominant-baseline="middle" font-family="Arial" font-size="155" font-weight="900">🛒</text>
    <rect x="710" y="310" width="610" height="54" rx="27" fill="#13b8a6" opacity=".25"/>
    <rect x="710" y="390" width="500" height="36" rx="18" fill="#f6c84c" opacity=".45"/>
    <rect x="710" y="455" width="560" height="36" rx="18" fill="#13b8a6" opacity=".22"/>
    <rect x="710" y="535" width="380" height="74" rx="28" fill="#ff9b36" opacity=".80"/>
  </g>
</svg>
